{
	"accessors" : 
	[
		{
			"bufferView" : 2,
			"byteOffset" : 0,
			"componentType" : 5126,
			"count" : 19978,
			"max" : 
			[
				1,
				1,
				1,
				1
			],
			"min" : 
			[
				0,
				0.006584956776350737,
				0,
				1
			],
			"name" : "accessor_color_m0-PolyPaper21_-499376",
			"type" : "VEC4"
		},
		{
			"bufferView" : 2,
			"byteOffset" : 319648,
			"componentType" : 5126,
			"count" : 3466,
			"max" : 
			[
				1,
				0.835527777671814,
				0.2508402466773987,
				1
			],
			"min" : 
			[
				0.0697270855307579,
				0.08919350802898407,
				0.01188133470714092,
				1
			],
			"name" : "accessor_color_m1-PolyPaper12_-499382",
			"type" : "VEC4"
		},
		{
			"bufferView" : 0,
			"byteOffset" : 0,
			"componentType" : 5123,
			"count" : 30882,
			"max" : 
			[
				19977
			],
			"min" : 
			[
				0
			],
			"name" : "accessor_indices_0_m0-PolyPaper21_-499376",
			"type" : "SCALAR"
		},
		{
			"bufferView" : 0,
			"byteOffset" : 61764,
			"componentType" : 5123,
			"count" : 4296,
			"max" : 
			[
				3465
			],
			"min" : 
			[
				0
			],
			"name" : "accessor_indices_0_m1-PolyPaper12_-499382",
			"type" : "SCALAR"
		},
		{
			"bufferView" : 1,
			"byteOffset" : 239736,
			"componentType" : 5126,
			"count" : 19978,
			"max" : 
			[
				0.9997609,
				0.999909,
				0.9999802
			],
			"min" : 
			[
				-0.9997609,
				-0.9999735,
				-0.9997234
			],
			"name" : "accessor_normal_m0-PolyPaper21_-499376",
			"type" : "VEC3"
		},
		{
			"bufferView" : 1,
			"byteOffset" : 521064,
			"componentType" : 5126,
			"count" : 3466,
			"max" : 
			[
				0.9997823,
				0.9999522,
				0.9940357
			],
			"min" : 
			[
				-0.9995186,
				-0.9996734,
				-1
			],
			"name" : "accessor_normal_m1-PolyPaper12_-499382",
			"type" : "VEC3"
		},
		{
			"bufferView" : 1,
			"byteOffset" : 0,
			"componentType" : 5126,
			"count" : 19978,
			"max" : 
			[
				0.4050587,
				1.411547,
				-0.740446
			],
			"min" : 
			[
				0.1930581,
				1.318623,
				-0.9222299
			],
			"name" : "accessor_position_m0-PolyPaper21_-499376",
			"type" : "VEC3"
		},
		{
			"bufferView" : 1,
			"byteOffset" : 479472,
			"componentType" : 5126,
			"count" : 3466,
			"max" : 
			[
				0.3678859,
				1.344286,
				-0.7482955999999999
			],
			"min" : 
			[
				0.2470383,
				1.324387,
				-0.8350354
			],
			"name" : "accessor_position_m1-PolyPaper12_-499382",
			"type" : "VEC3"
		}
	],
	"asset" : 
	{
		"copyright" : "Unknown",
		"generator" : "glTF 1-to-2 Upgrader for Google Blocks",
		"version" : "2.0"
	},
	"bufferViews" : 
	[
		{
			"buffer" : 0,
			"byteLength" : 70356,
			"byteOffset" : 0,
			"name" : "ushortBufferView",
			"target" : 34963
		},
		{
			"buffer" : 0,
			"byteLength" : 562656,
			"byteOffset" : 70356,
			"byteStride" : 12,
			"name" : "vec3BufferView",
			"target" : 34962
		},
		{
			"buffer" : 0,
			"byteLength" : 375104,
			"byteOffset" : 633012,
			"byteStride" : 16,
			"name" : "vec4BufferView",
			"target" : 34962
		}
	],
	"buffers" : 
	[
		{
			"byteLength" : 1008116,
			"name" : "model",
			"uri" : "model.bin"
		}
	],
	"materials" : 
	[
		{
			"alphaMode" : "OPAQUE",
			"doubleSided" : false,
			"name" : "BlocksPaper",
			"pbrMetallicRoughness" : 
			{
				"baseColorFactor" : 
				[
					1,
					1,
					1,
					1
				],
				"metallicFactor" : 0,
				"roughnessFactor" : 0.6
			}
		},
		{
			"alphaMode" : "BLEND",
			"doubleSided" : false,
			"name" : "BlocksGlass",
			"pbrMetallicRoughness" : 
			{
				"baseColorFactor" : 
				[
					0.2,
					0.2,
					1,
					0.3
				],
				"metallicFactor" : 1,
				"roughnessFactor" : 0.4
			}
		},
		{
			"alphaMode" : "OPAQUE",
			"doubleSided" : true,
			"name" : "BlocksGem",
			"pbrMetallicRoughness" : 
			{
				"baseColorFactor" : 
				[
					1,
					0.4,
					1,
					1
				],
				"metallicFactor" : 0,
				"roughnessFactor" : 0.1
			}
		}
	],
	"meshes" : 
	[
		{
			"name" : "mesh_m0-PolyPaper21_-499376",
			"primitives" : 
			[
				{
					"attributes" : 
					{
						"COLOR_0" : 0,
						"NORMAL" : 4,
						"POSITION" : 6
					},
					"indices" : 2,
					"material" : 0,
					"mode" : 4
				}
			]
		},
		{
			"name" : "mesh_m1-PolyPaper12_-499382",
			"primitives" : 
			[
				{
					"attributes" : 
					{
						"COLOR_0" : 1,
						"NORMAL" : 5,
						"POSITION" : 7
					},
					"indices" : 3,
					"material" : 0,
					"mode" : 4
				}
			]
		}
	],
	"nodes" : 
	[
		{
			"matrix" : 
			[
				1,
				0,
				0,
				0,
				0,
				1,
				0,
				0,
				0,
				0,
				1,
				0,
				0,
				0,
				0,
				1
			],
			"mesh" : 0,
			"name" : "node_MeshObject-105222144-PolyPaper21"
		},
		{
			"matrix" : 
			[
				1,
				0,
				0,
				0,
				0,
				1,
				0,
				0,
				0,
				0,
				1,
				0,
				0,
				0,
				0,
				1
			],
			"mesh" : 1,
			"name" : "node_MeshObject-1258128384-PolyPaper12"
		}
	],
	"scene" : 0,
	"scenes" : 
	[
		{
			"extras" : {},
			"name" : "defaultScene",
			"nodes" : 
			[
				0,
				1
			]
		}
	]
}