{
  "accessors": [
    {
      "bufferView": 0,
      "byteOffset": 0,
      "componentType": 5123,
      "count": 33264,
      "max": [
        20913.0
      ],
      "min": [
        0.0
      ],
      "name": "buffer-0-group-0-mesh-0-indices",
      "type": "SCALAR"
    },
    {
      "bufferView": 1,
      "byteOffset": 0,
      "componentType": 5126,
      "count": 20914,
      "max": [
        0.033736199140548706,
        0.23419499397277832,
        -0.014693900011479855
      ],
      "min": [
        -0.022588400170207024,
        -1.9739800087657275E-17,
        -0.07303240150213242
      ],
      "name": "buffer-0-group-0-mesh-0-position",
      "type": "VEC3"
    },
    {
      "bufferView": 1,
      "byteOffset": 250968,
      "componentType": 5126,
      "count": 20914,
      "max": [
        1.0,
        1.0,
        1.0
      ],
      "min": [
        -1.0,
        -1.0,
        -1.0
      ],
      "name": "buffer-0-group-0-mesh-0-normal",
      "type": "VEC3"
    },
    {
      "bufferView": 2,
      "byteOffset": 0,
      "componentType": 5126,
      "count": 20914,
      "max": [
        0.6821609735488892,
        -0.03023960068821907
      ],
      "min": [
        0.309471994638443,
        -0.9686959981918335
      ],
      "name": "buffer-0-group-0-mesh-0-texcoord",
      "type": "VEC2"
    }
  ],
  "asset": {
    "generator": "Obj2GltfConverter",
    "version": "2.0"
  },
  "bufferViews": [
    {
      "buffer": 0,
      "byteLength": 66528,
      "byteOffset": 0,
      "name": "buffer-0-bufferview-ushort",
      "target": 34963
    },
    {
      "buffer": 0,
      "byteLength": 501936,
      "byteOffset": 66528,
      "byteStride": 12,
      "name": "buffer-0-bufferview-vec3",
      "target": 34962
    },
    {
      "buffer": 0,
      "byteLength": 167312,
      "byteOffset": 568464,
      "byteStride": 8,
      "name": "buffer-0-bufferview-vec2",
      "target": 34962
    }
  ],
  "buffers": [
    {
      "byteLength": 735776,
      "name": "buffer-0",
      "uri": "JWRed.bin"
    }
  ],
  "images": [
    {
      "mimeType": "image/jpeg",
      "name": "johnnie_walker_red_label_blended_scotch_whisky_1000ml_1_562x928-diffuse-image",
      "uri": "JWRed/johnnie_walker_red_label_blended_scotch_whisky_1000ml_1_562x928.jpg"
    }
  ],
  "materials": [
    {
      "alphaMode": "OPAQUE",
      "doubleSided": true,
      "name": "johnnie_walker_red_label_blended_scotch_whisky_1000ml_1_562x928",
      "pbrMetallicRoughness": {
        "baseColorFactor": [
          0.929412,
          0.815686,
          0.741176,
          1.0
        ],
        "baseColorTexture": {
          "index": 0,
          "texCoord": 0
        },
        "metallicFactor": 0.0,
        "roughnessFactor": 0.9699476628648295
      }
    }
  ],
  "meshes": [
    {
      "name": "buffer-0-mesh-0",
      "primitives": [
        {
          "attributes": {
            "POSITION": 1,
            "NORMAL": 2,
            "TEXCOORD_0": 3
          },
          "indices": 0,
          "material": 0,
          "mode": 4
        }
      ]
    }
  ],
  "nodes": [
    {
      "mesh": 0,
      "name": "node-0"
    }
  ],
  "samplers": [
    {
      "name": "johnnie_walker_red_label_blended_scotch_whisky_1000ml_1_562x928-diffuse-sampler",
      "wrapS": 10497,
      "wrapT": 10497
    }
  ],
  "scenes": [
    {
      "name": "scene-0",
      "nodes": [
        0
      ]
    }
  ],
  "textures": [
    {
      "name": "johnnie_walker_red_label_blended_scotch_whisky_1000ml_1_562x928-diffuse-texture",
      "sampler": 0,
      "source": 0
    }
  ]
}