{
	"accessors" : 
	[
		{
			"bufferView" : 2,
			"byteOffset" : 0,
			"componentType" : 5126,
			"count" : 2606,
			"max" : 
			[
				1,
				1,
				1,
				1
			],
			"min" : 
			[
				0.0697270855307579,
				0.05284162983298302,
				0.0328759141266346,
				1
			],
			"name" : "accessor_color_m0-PolyPaper21_-94440",
			"type" : "VEC4"
		},
		{
			"bufferView" : 2,
			"byteOffset" : 41696,
			"componentType" : 5126,
			"count" : 576,
			"max" : 
			[
				0.6800203323364258,
				0.6800203323364258,
				0.6800203323364258,
				0.2509804
			],
			"min" : 
			[
				0.6800203323364258,
				0.6800203323364258,
				0.6800203323364258,
				0.2509804
			],
			"name" : "accessor_color_m1-PolyGlass24_-94442",
			"type" : "VEC4"
		},
		{
			"bufferView" : 0,
			"byteOffset" : 0,
			"componentType" : 5123,
			"count" : 3540,
			"max" : 
			[
				2605
			],
			"min" : 
			[
				0
			],
			"name" : "accessor_indices_0_m0-PolyPaper21_-94440",
			"type" : "SCALAR"
		},
		{
			"bufferView" : 0,
			"byteOffset" : 7080,
			"componentType" : 5123,
			"count" : 864,
			"max" : 
			[
				575
			],
			"min" : 
			[
				0
			],
			"name" : "accessor_indices_0_m1-PolyGlass24_-94442",
			"type" : "SCALAR"
		},
		{
			"bufferView" : 1,
			"byteOffset" : 31272,
			"componentType" : 5126,
			"count" : 2606,
			"max" : 
			[
				0.9958832,
				0.9906198000000001,
				0.9889722
			],
			"min" : 
			[
				-0.9958833,
				-0.9906201,
				-0.988972
			],
			"name" : "accessor_normal_m0-PolyPaper21_-94440",
			"type" : "VEC3"
		},
		{
			"bufferView" : 1,
			"byteOffset" : 69456,
			"componentType" : 5126,
			"count" : 576,
			"max" : 
			[
				0.9777859,
				0.9977152,
				0.9763471
			],
			"min" : 
			[
				-0.9777858,
				-0.9977152,
				-0.9763469
			],
			"name" : "accessor_normal_m1-PolyGlass24_-94442",
			"type" : "VEC3"
		},
		{
			"bufferView" : 1,
			"byteOffset" : 0,
			"componentType" : 5126,
			"count" : 2606,
			"max" : 
			[
				-0.4069291,
				1.221266,
				-0.06701127
			],
			"min" : 
			[
				-0.931799,
				0.9207731,
				-0.4016484
			],
			"name" : "accessor_position_m0-PolyPaper21_-94440",
			"type" : "VEC3"
		},
		{
			"bufferView" : 1,
			"byteOffset" : 62544,
			"componentType" : 5126,
			"count" : 576,
			"max" : 
			[
				-0.3406768,
				1.166783,
				-0.02255451
			],
			"min" : 
			[
				-0.9806768,
				0.8591287,
				-0.4629738
			],
			"name" : "accessor_position_m1-PolyGlass24_-94442",
			"type" : "VEC3"
		}
	],
	"asset" : 
	{
		"copyright" : "Unknown",
		"generator" : "glTF 1-to-2 Upgrader for Google Blocks",
		"version" : "2.0"
	},
	"bufferViews" : 
	[
		{
			"buffer" : 0,
			"byteLength" : 8808,
			"byteOffset" : 0,
			"name" : "ushortBufferView",
			"target" : 34963
		},
		{
			"buffer" : 0,
			"byteLength" : 76368,
			"byteOffset" : 8808,
			"byteStride" : 12,
			"name" : "vec3BufferView",
			"target" : 34962
		},
		{
			"buffer" : 0,
			"byteLength" : 50912,
			"byteOffset" : 85176,
			"byteStride" : 16,
			"name" : "vec4BufferView",
			"target" : 34962
		}
	],
	"buffers" : 
	[
		{
			"byteLength" : 136088,
			"name" : "model",
			"uri" : "model.bin"
		}
	],
	"materials" : 
	[
		{
			"alphaMode" : "OPAQUE",
			"doubleSided" : false,
			"name" : "BlocksPaper",
			"pbrMetallicRoughness" : 
			{
				"baseColorFactor" : 
				[
					1,
					1,
					1,
					1
				],
				"metallicFactor" : 0,
				"roughnessFactor" : 0.6
			}
		},
		{
			"alphaMode" : "BLEND",
			"doubleSided" : false,
			"name" : "BlocksGlass",
			"pbrMetallicRoughness" : 
			{
				"baseColorFactor" : 
				[
					0.2,
					0.2,
					1,
					0.3
				],
				"metallicFactor" : 1,
				"roughnessFactor" : 0.4
			}
		},
		{
			"alphaMode" : "OPAQUE",
			"doubleSided" : true,
			"name" : "BlocksGem",
			"pbrMetallicRoughness" : 
			{
				"baseColorFactor" : 
				[
					1,
					0.4,
					1,
					1
				],
				"metallicFactor" : 0,
				"roughnessFactor" : 0.1
			}
		}
	],
	"meshes" : 
	[
		{
			"name" : "mesh_m0-PolyPaper21_-94440",
			"primitives" : 
			[
				{
					"attributes" : 
					{
						"COLOR_0" : 0,
						"NORMAL" : 4,
						"POSITION" : 6
					},
					"indices" : 2,
					"material" : 0,
					"mode" : 4
				}
			]
		},
		{
			"name" : "mesh_m1-PolyGlass24_-94442",
			"primitives" : 
			[
				{
					"attributes" : 
					{
						"COLOR_0" : 1,
						"NORMAL" : 5,
						"POSITION" : 7
					},
					"indices" : 3,
					"material" : 1,
					"mode" : 4
				}
			]
		}
	],
	"nodes" : 
	[
		{
			"matrix" : 
			[
				1,
				0,
				0,
				0,
				0,
				1,
				0,
				0,
				0,
				0,
				1,
				0,
				0,
				0,
				0,
				1
			],
			"mesh" : 0,
			"name" : "node_MeshObject1426725248-PolyPaper21"
		},
		{
			"matrix" : 
			[
				1,
				0,
				0,
				0,
				0,
				1,
				0,
				0,
				0,
				0,
				1,
				0,
				0,
				0,
				0,
				1
			],
			"mesh" : 1,
			"name" : "node_MeshObject1945445312-PolyGlass24"
		}
	],
	"scene" : 0,
	"scenes" : 
	[
		{
			"extras" : {},
			"name" : "defaultScene",
			"nodes" : 
			[
				0,
				1
			]
		}
	]
}